<svg xmlns="http://www.w3.org/2000/svg">
  <!-- Instagram -->
  <symbol id="instagram-icon" viewBox="0 0 24 24">
    <path fill="currentColor" d="M7.8 2h8.4C19.4 2 22 4.6 22 7.8v8.4a5.8 5.8 0 0 1-5.8 5.8H7.8C4.6 22 2 19.4 2 16.2V7.8A5.8 5.8 0 0 1 7.8 2m-.2 2A3.6 3.6 0 0 0 4 7.6v8.8C4 18.39 5.61 20 7.6 20h8.8a3.6 3.6 0 0 0 3.6-3.6V7.6C20 5.61 18.39 4 16.4 4zm9.65 1.5a1.25 1.25 0 0 1 1.25 1.25A1.25 1.25 0 0 1 17.25 8A1.25 1.25 0 0 1 16 6.75a1.25 1.25 0 0 1 1.25-1.25M12 7a5 5 0 0 1 5 5a5 5 0 0 1-5 5a5 5 0 0 1-5-5a5 5 0 0 1 5-5m0 2a3 3 0 0 0-3 3a3 3 0 0 0 3 3a3 3 0 0 0 3-3a3 3 0 0 0-3-3"/>
  </symbol>

  <!-- Twitter -->
  <symbol id="twitter-icon" viewBox="0 0 24 24">
    <path fill="currentColor" d="M22.46 6c-.85.38-1.78.64-2.75.76a4.8 4.8 0 0 0 2.1-2.66c-.92.55-1.95.95-3.03 1.16a4.76 4.76 0 0 0-8.1 4.34A13.5 13.5 0 0 1 1.64 4.16a4.76 4.76 0 0 0 1.47 6.35a4.7 4.7 0 0 1-2.15-.59v.06a4.76 4.76 0 0 0 3.82 4.66a4.8 4.8 0 0 1-2.15.08a4.76 4.76 0 0 0 4.45 3.3A9.55 9.55 0 0 1 .96 19.74a13.5 13.5 0 0 0 7.29 2.14c8.75 0 13.54-7.25 13.54-13.54q0-.31-.01-.62A9.7 9.7 0 0 0 24 4.56q-.51.23-1.06.4z"/>
  </symbol>

  <!-- GitHub -->
  <symbol id="github-icon" viewBox="0 0 24 24">
    <path fill="currentColor" d="M12 2A10 10 0 0 0 2 12c0 4.42 2.87 8.17 6.84 9.5c.5.08.66-.23.66-.5v-1.69c-2.77.6-3.36-1.34-3.36-1.34c-.46-1.16-1.11-1.47-1.11-1.47c-.91-.62.07-.6.07-.6c1 .07 1.53 1.03 1.53 1.03c.87 1.52 2.34 1.07 2.91.83c.09-.65.35-1.09.63-1.34c-2.22-.25-4.55-1.11-4.55-4.92c0-1.11.38-2 1.03-2.71c-.1-.25-.45-1.29.1-2.64c0 0 .84-.27 2.75 1.02c.79-.22 1.65-.33 2.5-.33s1.71.11 2.5.33c1.91-1.29 2.75-1.02 2.75-1.02c.55 1.35.2 2.39.1 2.64c.65.71 1.03 1.6 1.03 2.71c0 3.82-2.34 4.66-4.57 4.91c.36.31.69.92.69 1.85V21c0 .27.16.59.67.5C19.14 20.16 22 16.42 22 12A10 10 0 0 0 12 2"/>
  </symbol>

  <!-- LinkedIn -->
  <symbol id="linkedin-icon" viewBox="0 0 24 24">
    <path fill="currentColor" d="M19 3a2 2 0 0 1 2 2v14a2 2 0 0 1-2 2H5a2 2 0 0 1-2-2V5a2 2 0 0 1 2-2zm-.5 15.5v-5.3a3.26 3.26 0 0 0-3.26-3.26c-.85 0-1.84.52-2.32 1.3v-1.11h-2.79v8.37h2.79v-4.93c0-.77.62-1.4 1.39-1.4a1.4 1.4 0 0 1 1.4 1.4v4.93zM6.88 8.56a1.68 1.68 0 0 0 1.68-1.68c0-.93-.75-1.69-1.68-1.69a1.69 1.69 0 0 0-1.69 1.69c0 .93.76 1.68 1.69 1.68m1.39 9.94v-8.37H5.5v8.37z"/>
  </symbol>

  <!-- YouTube -->
  <symbol id="youtube-icon" viewBox="0 0 24 24">
    <path fill="currentColor" d="M23.498 6.186a3.016 3.016 0 0 0-2.122-2.136C19.505 3.545 12 3.545 12 3.545s-7.505 0-9.377.505A3.017 3.017 0 0 0 .502 6.186C0 8.07 0 12 0 12s0 3.93.502 5.814a3.016 3.016 0 0 0 2.122 2.136c1.871.505 9.376.505 9.376.505s7.505 0 9.377-.505a3.015 3.015 0 0 0 2.122-2.136C24 15.93 24 12 24 12s0-3.93-.502-5.814zM9.545 15.568V8.432L15.818 12l-6.273 3.568z"/>
  </symbol>

  <!-- TikTok -->
  <symbol id="tiktok-icon" viewBox="0 0 24 24">
    <path fill="currentColor" d="M16.6 5.82s.51.5 0 0A4.28 4.28 0 0 1 15.54 3h-3.09v12.4a2.59 2.59 0 0 1-2.59 2.5c-1.42 0-2.6-1.16-2.6-2.6c0-1.72 1.66-3.01 3.37-2.48V9.66c-3.45-.46-6.47 2.22-6.47 5.64c0 3.33 2.76 5.7 5.69 5.7c3.14 0 5.69-2.55 5.69-5.7V9.01a7.35 7.35 0 0 0 4.3 1.38V7.3s-1.88.09-3.24-1.48"/>
  </symbol>

  <!-- Facebook -->
  <symbol id="facebook-icon" viewBox="0 0 24 24">
    <path fill="currentColor" d="M22 12c0-5.52-4.48-10-10-10S2 6.48 2 12c0 4.84 3.44 8.87 8 9.8V15H8v-3h2V9.5C10 7.57 11.57 6 13.5 6H16v3h-2c-.55 0-1 .45-1 1v2h3v3h-3v6.95c5.05-.5 9-4.76 9-9.95"/>
  </symbol>

  <!-- Twitch -->
  <symbol id="twitch-icon" viewBox="0 0 24 24">
    <path fill="currentColor" d="M11.571 4.714h1.715v5.143H11.57zm4.715 0H18v5.143h-1.714zM6 0L1.714 4.286v15.428h5.143V24l4.286-4.286h3.428L22.286 12V0zm14.571 11.143l-3.428 3.428h-3.429l-3 3v-3H6.857V1.714h13.714Z"/>
  </symbol>

  <!-- Discord -->
  <symbol id="discord-icon" viewBox="0 0 24 24">
    <path fill="currentColor" d="M19.27 5.33C17.94 4.71 16.5 4.26 15 4a.09.09 0 0 0-.07.03c-.18.33-.39.76-.53 1.09a16.09 16.09 0 0 0-4.8 0c-.14-.34-.35-.76-.54-1.09c-.01-.02-.04-.03-.07-.03c-1.5.26-2.93.71-4.27 1.33c-.01 0-.02.01-.03.02c-2.72 4.07-3.47 8.03-3.1 11.95c0 .02.01.04.03.05c1.8 1.32 3.53 2.12 5.24 2.65c.03.01.06 0 .07-.02c.4-.55.76-1.13 1.07-1.74c.02-.04 0-.08-.04-.09c-.57-.22-1.11-.48-1.64-.78c-.04-.02-.04-.08-.01-.11c.11-.08.22-.17.33-.25c.02-.02.05-.02.07-.01c3.44 1.57 7.15 1.57 10.55 0c.02-.01.05-.01.07.01c.11.09.22.17.33.26c.04.03.04.09-.01.11c-.52.31-1.07.56-1.64.78c-.04.01-.05.06-.04.09c.32.61.68 1.19 1.07 1.74c.03.01.06.02.09.01c1.72-.53 3.45-1.33 5.25-2.65c.02-.01.03-.03.03-.05c.44-4.53-.73-8.46-3.1-11.95c-.01-.01-.02-.02-.04-.02M8.52 14.91c-1.03 0-1.89-.95-1.89-2.12s.84-2.12 1.89-2.12c1.06 0 1.9.96 1.89 2.12c0 1.17-.84 2.12-1.89 2.12m6.97 0c-1.03 0-1.89-.95-1.89-2.12s.84-2.12 1.89-2.12c1.06 0 1.9.96 1.89 2.12c0 1.17-.83 2.12-1.89 2.12"/>
  </symbol>

  <!-- Spotify -->
  <symbol id="spotify-icon" viewBox="0 0 24 24">
    <path fill="currentColor" d="M12 2C6.48 2 2 6.48 2 12s4.48 10 10 10s10-4.48 10-10S17.52 2 12 2m4.64 14.5c-.17.3-.54.4-.84.23c-2.3-1.4-5.2-1.72-8.62-.94c-.33.08-.66-.13-.74-.46c-.08-.33.13-.66.46-.74c3.75-.85 6.96-.48 9.51 1.07c.3.17.4.54.23.84m1.2-2.68c-.21.38-.68.5-1.06.29c-2.64-1.62-6.65-2.09-9.77-1.14c-.42.13-.87-.11-1-.53s.11-.87.53-1c3.57-1.08 7.96-.56 10.89 1.3c.38.21.5.68.29 1.06m.1-2.8C14.76 9 8.59 8.77 5.01 9.99c-.5.17-1.03-.1-1.2-.6c-.17-.5.1-1.03.6-1.2c4.11-1.4 10.96-1.13 15.21 1.31c.46.26.61.85.35 1.31c-.26.46-.85.61-1.31.35"/>
  </symbol>

  <!-- Website/Globe -->
  <symbol id="globe-icon" viewBox="0 0 24 24">
    <path fill="currentColor" d="M12 2C6.48 2 2 6.48 2 12s4.48 10 10 10s10-4.48 10-10S17.52 2 12 2m-1 17.93c-3.95-.49-7-3.85-7-7.93c0-.62.08-1.21.21-1.79L9 15v1c0 1.1.9 2 2 2zm6.9-2.54c-.26-.81-1-1.39-1.9-1.39h-1v-3c0-.55-.45-1-1-1H8v-2h2c.55 0 1-.45 1-1V7h2c1.1 0 2-.9 2-2v-.41c2.93 1.19 5 4.06 5 7.41c0 2.08-.8 3.97-2.1 5.39"/>
  </symbol>

  <!-- Email -->
  <symbol id="mail-icon" viewBox="0 0 24 24">
    <path fill="currentColor" d="M20 4H4c-1.1 0-1.99.9-1.99 2L2 18c0 1.1.9 2 2 2h16c1.1 0 2-.9 2-2V6c0-1.1-.9-2-2-2m0 4l-8 5l-8-5V6l8 5l8-5z"/>
  </symbol>

  <!-- Link -->
  <symbol id="link-icon" viewBox="0 0 24 24">
    <path fill="currentColor" d="M3.9 12c0-1.71 1.39-3.1 3.1-3.1h4V7H7c-2.76 0-5 2.24-5 5s2.24 5 5 5h4v-1.9H7c-1.71 0-3.1-1.39-3.1-3.1M8 13h8v-2H8zm9-6h-4v1.9h4c1.71 0 3.1 1.39 3.1 3.1s-1.39 3.1-3.1 3.1h-4V17h4c2.76 0 5-2.24 5-5s-2.24-5-5-5"/>
  </symbol>

  <!-- X (Twitter) -->
  <symbol id="x-icon" viewBox="0 0 24 24">
    <path fill="currentColor" d="M18.244 2.25h3.308l-7.227 8.26l8.502 11.24H16.17l-5.214-6.817L4.99 21.75H1.68l7.73-8.835L1.254 2.25H8.08l4.713 6.231zm-1.161 17.52h1.833L7.084 4.126H5.117z"/>
  </symbol>

  <!-- Bluesky -->
  <symbol id="bluesky-icon" viewBox="0 0 24 24">
    <path fill="currentColor" d="M12 10.8c-1.087-2.114-4.046-6.053-6.798-7.995C2.566.944 1.561 1.266.902 1.565C.139 1.908 0 2.847 0 3.55c0 .699.378 5.65.624 6.479c.815 2.736 3.713 3.66 6.383 3.364c-3.912.584-7.387 2.005-2.83 7.078c5.013 5.19 6.87-1.113 7.823-4.308c.953 3.195 2.05 9.271 7.733 4.308c4.267-4.308 1.172-6.5-2.74-7.078c2.671.296 5.569-.628 6.383-3.364c.246-.828.624-5.78.624-6.478c0-.703-.139-1.643-.902-1.986c-.659-.298-1.664-.62-4.3 1.24C16.046 4.748 13.087 8.687 12 10.8"/>
  </symbol>

  <!-- Social Icon (generic) -->
  <symbol id="social-icon" viewBox="0 0 24 24">
    <path fill="currentColor" d="M12 2C6.48 2 2 6.48 2 12s4.48 10 10 10s10-4.48 10-10S17.52 2 12 2M7.35 18.5C6.66 17.56 6.26 16.42 6.26 15.2c0-3.22 2.61-5.83 5.83-5.83c3.22 0 5.83 2.61 5.83 5.83c0 1.22-.4 2.36-1.09 3.3c-.69.94-1.65 1.67-2.74 2.09c-1.09.42-2.27.42-3.36 0c-1.09-.42-2.05-1.15-2.74-2.09M12 8.5c-1.93 0-3.5-1.57-3.5-3.5S10.07 1.5 12 1.5s3.5 1.57 3.5 3.5S13.93 8.5 12 8.5"/>
  </symbol>

  <!-- Documentation -->
  <symbol id="documentation-icon" viewBox="0 0 24 24">
    <path fill="currentColor" d="M14 2H6c-1.1 0-1.99.9-1.99 2L4 20c0 1.1.89 2 1.99 2H18c1.1 0 2-.9 2-2V8zm2 16H8v-2h8zm0-4H8v-2h8zm-3-5V3.5L18.5 9z"/>
  </symbol>
</svg>
